HIERARCHY
ROOT Hips
{
	OFFSET 0 0 0
	CHANNELS 6 Xposition Yposition Zposition Yrotation Xrotation Zrotation
	JOINT Spine
	{
		OFFSET -0 8.2342 -2.62465
		CHANNELS 3 Yrotation Xrotation Zrotation
		JOINT Spine1
		{
			OFFSET -0 8.4478 0
			CHANNELS 3 Yrotation Xrotation Zrotation
			JOINT Spine2
			{
				OFFSET -0 8.4478 0
				CHANNELS 3 Yrotation Xrotation Zrotation
				JOINT Spine3
				{
					OFFSET -0 8.4478 0
					CHANNELS 3 Yrotation Xrotation Zrotation
					JOINT Neck
					{
						OFFSET -0 18.5512 3.62465
						CHANNELS 3 Yrotation Xrotation Zrotation
						JOINT Head
						{
							OFFSET -0 10.2927 0
							CHANNELS 3 Yrotation Xrotation Zrotation
							End Site
							{
								OFFSET 0 15 0
							}
						}
					}
					JOINT LeftShoulder
					{
						OFFSET 1.71546 6.41977 3.43091
						CHANNELS 3 Yrotation Xrotation Zrotation
						JOINT LeftArm
						{
							OFFSET 15.2902 0 0
							CHANNELS 3 Yrotation Xrotation Zrotation
							JOINT LeftForeArm
							{
								OFFSET 26.8549 0 0
								CHANNELS 3 Yrotation Xrotation Zrotation
								JOINT LeftHand
								{
									OFFSET 22.5821 0 0
									CHANNELS 3 Yrotation Xrotation Zrotation
									End Site
									{
										OFFSET 15 0 0
									}
								}
							}
						}
					}
					JOINT RightShoulder
					{
						OFFSET -1.71546 6.41977 3.43091
						CHANNELS 3 Yrotation Xrotation Zrotation
						JOINT RightArm
						{
							OFFSET -15.2902 0 0
							CHANNELS 3 Yrotation Xrotation Zrotation
							JOINT RightForeArm
							{
								OFFSET -26.8549 0 0
								CHANNELS 3 Yrotation Xrotation Zrotation
								JOINT RightHand
								{
									OFFSET -22.5821 0 0
									CHANNELS 3 Yrotation Xrotation Zrotation
									End Site
									{
										OFFSET -15 0 0
									}
								}
							}
						}
					}
				}
			}
		}
	}
	JOINT LeftUpLeg
	{
		OFFSET 10.2927 -3.43091 2
		CHANNELS 3 Yrotation Xrotation Zrotation
		JOINT LeftLeg
		{
			OFFSET -0 -38.9005 2.40164
			CHANNELS 3 Yrotation Xrotation Zrotation
			JOINT LeftFoot
			{
				OFFSET -0 -40.9638 -2.40164
				CHANNELS 3 Yrotation Xrotation Zrotation
				JOINT LeftToeBase
				{
					OFFSET -0 -6.62338 15.4391
					CHANNELS 3 Yrotation Xrotation Zrotation
					End Site
					{
						OFFSET 0 0 5
					}
				}
			}
		}
	}
	JOINT RightUpLeg
	{
		OFFSET -10.2927 -3.43091 2
		CHANNELS 3 Yrotation Xrotation Zrotation
		JOINT RightLeg
		{
			OFFSET -0 -38.9005 2.40164
			CHANNELS 3 Yrotation Xrotation Zrotation
			JOINT RightFoot
			{
				OFFSET -0 -40.9638 -2.40164
				CHANNELS 3 Yrotation Xrotation Zrotation
				JOINT RightToeBase
				{
					OFFSET -0 -6.62338 15.4391
					CHANNELS 3 Yrotation Xrotation Zrotation
					End Site
					{
						OFFSET 0 0 5
					}
				}
			}
		}
	}
}
MOTION
Frames: 18
Frame Time: 0.00833333
0 92.309002 0 0 0 0 0 0 0 0 0 0 0 0 0 0 0 0 0 0 0 0 0 0 0 0 0 0 0 0 0 0 0 0 0 0 0 0 0 0 0 0 0 0 0 0 0 0 0 0 0 0 0 0 0 0 0 0 0 0 0 0 0 0 0 0 0 0 0 0 0 0
-9.904430 92.442651 23.856137 2.799588 -0.509766 -0.034243 -0.205802 1.449015 -0.152497 -0.281724 1.447417 -0.058850 -0.457337 1.458633 0.023966 -0.498477 1.428214 0.056042 -1.793270 -3.486794 -5.540870 -2.247222 -7.956923 10.005523 8.970598 1.930590 3.911545 -25.187409 1.859648 -65.789651 -12.873852 -4.800149 11.812150 22.890893 -13.066013 -4.127509 -11.485951 4.616429 0.756488 30.893488 1.353083 61.318682 13.910745 -7.260753 -11.476897 -13.464010 -7.671047 5.786300 3.768672 3.944998 3.343353 0.000000 -0.717996 0.000000 6.580929 0.616704 2.351363 0.000000 -7.301108 0.000000 -5.066774 3.873149 -3.777176 0.000000 0.110931 0.000000 -8.689190 0.731942 -1.716508 0.000000 -8.136779 0.000000
-9.904638 92.442548 23.855948 2.794419 -0.510963 -0.030530 -0.211114 1.445459 -0.159998 -0.286891 1.454684 -0.059133 -0.450551 1.456134 0.028814 -0.491166 1.431414 0.054401 -1.791799 -3.493723 -5.552008 -2.248911 -7.946964 10.024960 8.970595 1.930988 3.902484 -25.202990 1.871158 -65.767542 -12.887727 -4.802631 11.773464 22.893561 -13.078300 -4.086390 -11.467061 4.625231 0.756577 30.874914 1.347051 61.310460 13.894558 -7.190860 -11.475107 -13.432665 -7.701808 5.795845 3.765235 3.944086 3.341098 0.000000 -0.712707 0.000000 6.594710 0.630219 2.346547 0.000000 -7.308978 0.000000 -5.068382 3.873441 -3.779707 0.000000 0.109222 0.000000 -8.695945 0.735653 -1.738149 0.000000 -8.165743 0.000000
-9.908251 92.442816 23.855742 2.793544 -0.511607 -0.029056 -0.210326 1.438344 -0.169042 -0.285699 1.467668 -0.060179 -0.452883 1.451254 0.035370 -0.493034 1.428951 0.055158 -1.783824 -3.484954 -5.553570 -2.244857 -7.953996 10.017927 8.967829 1.944869 3.885595 -25.212951 1.898628 -65.760064 -12.925191 -4.725018 11.782351 22.916343 -13.198128 -4.092187 -11.448762 4.642605 0.758953 30.859338 1.332130 61.293687 13.896979 -7.188950 -11.458324 -13.448073 -7.657773 5.767735 3.760435 3.943459 3.342338 0.000000 -0.713013 0.000000 6.586956 0.633148 2.329896 0.000000 -7.353517 0.000000 -5.076403 3.873409 -3.780012 0.000000 0.106716 0.000000 -8.681658 0.733255 -1.737334 0.000000 -8.153120 0.000000
-9.909192 92.442859 23.855409 2.792486 -0.511456 -0.028883 -0.205332 1.458364 -0.151129 -0.281664 1.443592 -0.061735 -0.447919 1.451135 0.016046 -0.489381 1.428459 0.049168 -1.773835 -3.484025 -5.543735 -2.238128 -7.946081 10.014565 8.937058 1.950318 3.892601 -25.167886 1.871981 -65.746093 -12.905628 -4.752783 11.743818 22.891036 -13.087767 -4.092294 -11.461907 4.642343 0.751953 30.869404 1.346668 61.320685 13.911703 -7.172059 -11.469115 -13.466987 -7.722378 5.799713 3.758430 3.943198 3.342663 0.000000 -0.712422 0.000000 6.598189 0.627442 2.317956 0.000000 -7.315997 0.000000 -5.067342 3.874328 -3.779185 0.000000 0.104938 0.000000 -8.688942 0.737342 -1.719647 0.000000 -8.166046 0.000000
-9.912859 92.442828 23.852849 2.792919 -0.512225 -0.028231 -0.192789 1.446114 -0.148687 -0.268163 1.469612 -0.064185 -0.455720 1.443313 0.011198 -0.497080 1.422963 0.042079 -1.783109 -3.482940 -5.528992 -2.240062 -7.940781 10.014470 8.931320 1.963192 3.885791 -25.160624 1.870219 -65.733316 -12.933328 -4.685508 11.752662 22.929456 -13.117110 -4.092928 -11.444749 4.644290 0.754348 30.848019 1.348679 61.333993 13.907619 -7.162152 -11.467372 -13.481239 -7.744169 5.822943 3.760816 3.941704 3.343547 0.000000 -0.713043 0.000000 6.597769 0.632017 2.347551 0.000000 -7.332034 0.000000 -5.066589 3.875160 -3.776282 0.000000 0.104969 0.000000 -8.680993 0.739003 -1.742497 0.000000 -8.165923 0.000000
-9.912657 92.444452 23.849519 2.788772 -0.514190 -0.032265 -0.219534 1.479329 -0.182849 -0.297070 1.435905 -0.051714 -0.426130 1.450736 0.057323 -0.464866 1.408565 0.052291 -1.776485 -3.460021 -5.578380 -2.243545 -7.952127 10.044712 8.917047 1.963555 3.852378 -25.159991 1.878103 -65.765576 -12.921553 -4.702635 11.773467 22.928112 -13.082358 -4.119678 -11.431025 4.648392 0.719140 30.788133 1.332502 61.335280 13.919238 -7.118226 -11.453192 -13.484419 -7.692940 5.774343 3.768275 3.940813 3.347317 0.000000 -0.711828 0.000000 6.600704 0.643480 2.340585 0.000000 -7.347571 0.000000 -5.055968 3.873171 -3.775531 0.000000 0.106597 0.000000 -8.684771 0.740832 -1.728205 0.000000 -8.171439 0.000000
-9.915116 92.444122 23.849042 2.791728 -0.514545 -0.025731 -0.201569 1.465220 -0.164606 -0.277713 1.462386 -0.056511 -0.440445 1.458028 0.034636 -0.480274 1.399207 0.038200 -1.781410 -3.498700 -5.580908 -2.246402 -7.907813 10.068096 8.972154 1.966188 3.856601 -25.256607 1.847123 -65.713107 -12.889720 -4.742197 11.723702 22.938005 -13.064850 -4.132832 -11.487411 4.626593 0.719556 30.920450 1.359649 61.359207 13.892536 -7.173442 -11.463807 -13.480462 -7.722778 5.744354 3.776933 3.938234 3.342368 0.000000 -0.709797 0.000000 6.581347 0.636406 2.358520 0.000000 -7.330496 0.000000 -5.065742 3.874043 -3.776857 0.000000 0.103566 0.000000 -8.693543 0.737516 -1.739642 0.000000 -8.161714 0.000000
-9.917909 92.443921 23.850525 2.797673 -0.513129 -0.032660 -0.193212 1.451870 -0.140012 -0.268799 1.464122 -0.065654 -0.442427 1.437855 0.000020 -0.485354 1.429373 0.043202 -1.790681 -3.473149 -5.540522 -2.244198 -7.921484 10.049353 8.890463 1.957574 3.883506 -25.149502 1.850229 -65.759919 -12.902541 -4.688298 11.751856 22.909515 -13.059433 -4.131873 -11.426535 4.621328 0.719264 30.781765 1.355644 61.403230 13.931691 -7.106188 -11.464726 -13.470931 -7.707791 5.750860 3.774236 3.939737 3.352371 0.000000 -0.712847 0.000000 6.577071 0.626681 2.333967 0.000000 -7.341477 0.000000 -5.061024 3.877115 -3.769329 0.000000 0.101930 0.000000 -8.689892 0.748475 -1.726200 0.000000 -8.170804 0.000000
-9.921186 92.445508 23.846536 2.814037 -0.513844 -0.037938 -0.196954 1.465767 -0.136894 -0.272967 1.463851 -0.069677 -0.445421 1.441488 -0.007717 -0.490933 1.401715 0.055559 -1.795200 -3.451826 -5.537451 -2.246972 -7.941078 10.056045 8.877152 1.945341 3.886002 -25.101081 1.841867 -65.791794 -12.894460 -4.721149 11.756308 22.897636 -13.050715 -4.069510 -11.433641 4.629597 0.708984 30.827256 1.371541 61.414139 13.922523 -7.090587 -11.462237 -13.485590 -7.769864 5.753802 3.772939 3.937929 3.358100 0.000000 -0.721205 0.000000 6.569814 0.644918 2.326408 0.000000 -7.332034 0.000000 -5.068585 3.874792 -3.761060 0.000000 0.104050 0.000000 -8.709432 0.746608 -1.727526 0.000000 -8.170359 0.000000
-9.925107 92.444037 23.845621 2.811233 -0.512815 -0.032698 -0.199376 1.474466 -0.154789 -0.276143 1.452253 -0.069112 -0.437379 1.447420 0.007139 -0.481491 1.391435 0.049033 -1.794914 -3.431757 -5.541863 -2.247097 -7.948898 10.065656 8.866255 1.937570 3.888900 -25.110718 1.854332 -65.817761 -12.880033 -4.687346 11.777650 22.894847 -13.103397 -4.091522 -11.434053 4.622685 0.689711 30.816302 1.368916 61.448386 13.922175 -7.091534 -11.478542 -13.466201 -7.720049 5.789332 3.766710 3.937442 3.355854 0.000000 -0.724968 0.000000 6.580925 0.644459 2.340030 0.000000 -7.351071 0.000000 -5.078160 3.875609 -3.762684 0.000000 0.098904 0.000000 -8.695685 0.735863 -1.755441 0.000000 -8.150585 0.000000
-9.927008 92.444244 23.843568 2.819710 -0.511997 -0.036333 -0.188377 1.479971 -0.105531 -0.264655 1.456169 -0.068720 -0.440746 1.448961 -0.037600 -0.486158 1.385825 0.011596 -1.817063 -3.463938 -5.512076 -2.252058 -7.908061 10.065190 8.921826 1.971258 3.906384 -25.233535 1.794918 -65.750952 -12.858875 -4.845188 11.753707 22.889531 -12.996297 -4.004508 -11.465266 4.625126 0.706331 30.818618 1.351093 61.494450 13.919256 -7.056392 -11.500753 -13.456892 -7.740648 5.778128 3.779570 3.936209 3.363554 0.000000 -0.730809 0.000000 6.548568 0.648414 2.323531 0.000000 -7.324518 0.000000 -5.088879 3.873740 -3.760516 0.000000 0.099314 0.000000 -8.683876 0.735954 -1.728980 0.000000 -8.162930 0.000000
-9.930370 92.445233 23.839529 2.822683 -0.513288 -0.031152 -0.193055 1.485657 -0.154019 -0.270040 1.461572 -0.075848 -0.450853 1.428352 -0.002630 -0.496860 1.394929 0.055024 -1.796689 -3.436239 -5.543855 -2.246152 -7.933833 10.062778 8.860946 1.941087 3.892247 -25.060083 1.814428 -65.835806 -12.886427 -4.773747 11.778454 22.872726 -13.032792 -3.993681 -11.415898 4.631342 0.668935 30.796021 1.350794 61.479919 13.935888 -7.074432 -11.486242 -13.428679 -7.678215 5.806984 3.781657 3.932378 3.359931 0.000000 -0.729905 0.000000 6.547380 0.657824 2.345498 0.000000 -7.350054 0.000000 -5.069189 3.878986 -3.760499 0.000000 0.088550 0.000000 -8.720882 0.751232 -1.747024 0.000000 -8.166092 0.000000
-9.932302 92.447070 23.838042 2.822684 -0.513250 -0.030275 -0.185394 1.492792 -0.145536 -0.262374 1.466807 -0.077746 -0.452248 1.427562 -0.013161 -0.498736 1.388455 0.048044 -1.797401 -3.464311 -5.536578 -2.246773 -7.915778 10.066241 8.859879 1.940883 3.894127 -25.040979 1.787581 -65.840199 -12.883389 -4.809373 11.778705 22.834666 -13.016715 -3.921945 -11.424259 4.630884 0.666236 30.791802 1.353499 61.490539 13.944387 -7.078498 -11.460519 -13.425910 -7.694999 5.778967 3.778788 3.931455 3.360512 0.000000 -0.732711 0.000000 6.545967 0.635620 2.325482 0.000000 -7.327261 0.000000 -5.070761 3.879578 -3.761379 0.000000 0.088888 0.000000 -8.721755 0.734226 -1.732636 0.000000 -8.137830 0.000000
-9.934887 92.447827 23.835732 2.823838 -0.512611 -0.023509 -0.184023 1.495948 -0.143626 -0.261620 1.463194 -0.073658 -0.449056 1.431298 -0.011388 -0.493726 1.390552 0.019490 -1.807790 -3.470991 -5.534704 -2.251312 -7.910382 10.068034 8.902980 1.966336 3.880389 -25.161680 1.789458 -65.780603 -12.891080 -4.827235 11.768231 22.869992 -13.032453 -3.926813 -11.440516 4.626485 0.674473 30.819094 1.361183 61.510322 13.939643 -7.066097 -11.485094 -13.412645 -7.732169 5.836673 3.786528 3.927484 3.355353 0.000000 -0.729718 0.000000 6.535086 0.657515 2.304879 0.000000 -7.346803 0.000000 -5.051025 3.883413 -3.763226 0.000000 0.075975 0.000000 -8.738328 0.761403 -1.763533 0.000000 -8.161412 0.000000
-9.937424 92.446820 23.832545 2.834394 -0.510719 -0.028340 -0.197016 1.510012 -0.168921 -0.275817 1.452356 -0.064673 -0.445336 1.435947 0.023626 -0.487954 1.373822 0.020206 -1.801381 -3.460413 -5.575086 -2.253930 -7.910873 10.098159 8.909576 1.969739 3.864657 -25.149308 1.796180 -65.801768 -12.891729 -4.771490 11.777224 22.891005 -13.075668 -3.940536 -11.415808 4.604382 0.645690 30.769211 1.377366 61.541181 13.963553 -7.073873 -11.488768 -13.428256 -7.644489 5.807453 3.792231 3.925795 3.362982 0.000000 -0.737722 0.000000 6.512472 0.662834 2.316667 0.000000 -7.330516 0.000000 -5.066180 3.883104 -3.758599 0.000000 0.070832 0.000000 -8.724600 0.779667 -1.758888 0.000000 -8.197808 0.000000
-9.939453 92.446588 23.830881 2.842677 -0.510319 -0.035933 -0.202134 1.501503 -0.144076 -0.280144 1.459531 -0.070767 -0.435163 1.440075 -0.009096 -0.481738 1.375327 0.028556 -1.805479 -3.470325 -5.550323 -2.251194 -7.894431 10.086077 8.887829 1.960299 3.880504 -25.165294 1.809187 -65.809642 -12.904524 -4.823514 11.751753 22.886563 -13.093292 -3.872836 -11.418938 4.620393 0.641130 30.758925 1.347017 61.556373 13.924920 -7.043481 -11.512810 -13.409646 -7.665460 5.896994 3.783323 3.927937 3.370657 0.000000 -0.747981 0.000000 6.514096 0.654868 2.315508 0.000000 -7.348700 0.000000 -5.090433 3.878909 -3.750412 0.000000 0.078145 0.000000 -8.716337 0.750802 -1.749725 0.000000 -8.137191 0.000000
-9.941570 92.447101 23.827394 2.844157 -0.510525 -0.034527 -0.204194 1.499145 -0.145502 -0.281680 1.475641 -0.072008 -0.430583 1.434202 -0.009914 -0.477143 1.373747 0.028250 -1.817062 -3.482032 -5.572324 -2.259390 -7.880607 10.104852 8.881785 1.952054 3.885735 -25.130997 1.780545 -65.810004 -12.879089 -4.836271 11.726138 22.863959 -12.992653 -3.856917 -11.426466 4.607270 0.642682 30.746470 1.342569 61.547535 13.932346 -7.113915 -11.480230 -13.431462 -7.553347 5.791246 3.788034 3.926698 3.371578 0.000000 -0.747939 0.000000 6.519171 0.654171 2.303668 0.000000 -7.315676 0.000000 -5.084581 3.880060 -3.750794 0.000000 0.074497 0.000000 -8.712884 0.759221 -1.758481 0.000000 -8.160675 0.000000
